<svg width="0" height="0" class="hidden">
  <symbol viewBox="0 0 40 40" fill="none" xmlns="http://www.w3.org/2000/svg" id="application">
    <path fill-rule="evenodd" clip-rule="evenodd" d="M5.6 3.2h9.6a2.4 2.4 0 0 1 2.4 2.4v9.6a2.4 2.4 0 0 1-2.4 2.4H5.6a2.4 2.4 0 0 1-2.4-2.4V5.6a2.4 2.4 0 0 1 2.4-2.4zm19.2 19.2h9.6a2.4 2.4 0 0 1 2.4 2.4v9.6a2.4 2.4 0 0 1-2.4 2.4h-9.6a2.4 2.4 0 0 1-2.4-2.4v-9.6a2.4 2.4 0 0 1 2.4-2.4z" fill="#1565D8"></path>
    <path opacity=".3" fill-rule="evenodd" clip-rule="evenodd" d="M24.8 3.2h9.6a2.4 2.4 0 0 1 2.4 2.4v9.6a2.4 2.4 0 0 1-2.4 2.4h-9.6a2.4 2.4 0 0 1-2.4-2.4V5.6a2.4 2.4 0 0 1 2.4-2.4zM5.6 22.4h9.6a2.4 2.4 0 0 1 2.4 2.4v9.6a2.4 2.4 0 0 1-2.4 2.4H5.6a2.4 2.4 0 0 1-2.4-2.4v-9.6a2.4 2.4 0 0 1 2.4-2.4z" fill="#1565D8"></path>
  </symbol>
  <symbol viewBox="0 0 40 40" fill="none" xmlns="http://www.w3.org/2000/svg" id="cs">
    <path fill-rule="evenodd" clip-rule="evenodd" d="M10.534 14.19c7.088 1 12.631-1.583 16.492-7.715a.87.87 0 0 0 .053-.094 9.431 9.431 0 0 1 2.388 6.286v3.466a9.467 9.467 0 0 1-4.9 8.294 2.4 2.4 0 1 0 .346 3.653C24.266 30.12 22.31 31.6 20 31.6c-2.838 0-5.14-2.235-5.143-4.994l.76-2.08a9.467 9.467 0 0 1-5.083-8.393v-1.942zm.018-2.124C10.863 7.117 14.974 3.2 20 3.2c2.119 0 4.075.696 5.652 1.872-.048.05-.093.106-.132.169-3.475 5.519-8.386 7.785-14.874 6.833a.82.82 0 0 0-.094-.008zm2.33 15.588C13.403 31.02 16.391 33.6 20 33.6c3.609 0 6.598-2.581 7.12-5.949l3.836.774a4 4 0 0 1 3.114 2.956l1.107 4.425a.8.8 0 0 1-.777.994H5.6a.8.8 0 0 1-.776-.994l1.105-4.42a3.997 3.997 0 0 1 3.117-2.956l3.835-.776z" fill="#1565D8"></path>
    <path opacity=".3" fill-rule="evenodd" clip-rule="evenodd" d="M23.2 27.2a.8.8 0 1 0 0-1.6.8.8 0 0 0 0 1.6zm7.77-16h.23a2.4 2.4 0 0 1 2.4 2.4v3.2a2.4 2.4 0 0 1-2.4 2.4h-.565c.283-.982.432-2.012.432-3.067v-3.466c0-.498-.033-.987-.096-1.467zm-21.604 8H8.8a2.4 2.4 0 0 1-2.4-2.4v-3.2a2.4 2.4 0 0 1 2.4-2.4h.23c-.063.48-.096.97-.096 1.467v3.466c0 1.055.15 2.085.432 3.067z" fill="#1565D8"></path>
  </symbol>
  <symbol viewBox="0 0 41 40" fill="none" xmlns="http://www.w3.org/2000/svg" id="like">
    <path fill-rule="evenodd" clip-rule="evenodd" d="M11.779 15.702c2.102-2.988 3.415-6.417 3.941-10.299a.962.962 0 0 1 .672-.788c3.62-1.12 5.68.66 5.646 4.72a37.82 37.82 0 0 1-.12 2.56c-.174 2.394-.16 3.047.108 3.487.258.422 1.094.567 3.071.191a47.89 47.89 0 0 0 1.944-.414c.306-.071 2.51-.61 3.074-.73 1.075-.233 1.847-.331 2.525-.29 1.837.113 2.813 1.296 2.98 3.563.298 3.991-.62 12.01-1.534 14.963-.934 3.017-2.564 4.157-6.477 4.225-2.516.045-6.385.045-11.625 0-1.338-.03-2.55-.29-3.629-.774a4.747 4.747 0 0 0 .473-2.07v-15.36a4.753 4.753 0 0 0-1.05-2.984z" fill="#1565D8"></path>
    <path opacity=".3" fill-rule="evenodd" clip-rule="evenodd" d="M6.049 15.806c-1.605 0-2.906 1.29-2.906 2.88v15.36c0 1.59 1.301 2.88 2.906 2.88h1.936c1.605 0 2.906-1.29 2.906-2.88v-15.36c0-1.59-1.301-2.88-2.906-2.88H6.05z" fill="#1565D8"></path>
  </symbol>
  <symbol viewBox="0 0 40 40" fill="none" xmlns="http://www.w3.org/2000/svg" id="multiple-shape">
    <path fill-rule="evenodd" clip-rule="evenodd" d="M5.6 3.2h19.2a2.4 2.4 0 0 1 2.4 2.4v19.2a2.4 2.4 0 0 1-2.4 2.4H5.6a2.4 2.4 0 0 1-2.4-2.4V5.6a2.4 2.4 0 0 1 2.4-2.4zm28 9.6h.8a2.4 2.4 0 0 1 2.4 2.4v19.2a2.4 2.4 0 0 1-2.4 2.4H15.2a2.4 2.4 0 0 1-2.4-2.4v-.8h16.8a4 4 0 0 0 4-4V12.8z" fill="#1565D8"></path>
    <path opacity=".3" fill-rule="evenodd" clip-rule="evenodd" d="M28.8 8h.8a2.4 2.4 0 0 1 2.4 2.4v19.2a2.4 2.4 0 0 1-2.4 2.4H10.4A2.4 2.4 0 0 1 8 29.6v-.8h16.8a4 4 0 0 0 4-4V8z" fill="#1565D8"></path>
  </symbol>
  <symbol viewBox="0 0 41 40" fill="none" xmlns="http://www.w3.org/2000/svg" id="opened-file">
    <path opacity=".3" fill-rule="evenodd" clip-rule="evenodd" d="M33.886 27.977V9.6a4.01 4.01 0 0 1 3.2 3.932v20.865a.8.8 0 0 1-1.01.775c-2.056-.56-6.87-2.082-7.612-2.281-1.564-.42-3.052-.676-4.905-.804 2.358-1.135 4.992-1.702 7.927-1.702 1.326 0 2.4-1.078 2.4-2.408zM6.686 9.6v18.377a2.404 2.404 0 0 0 2.4 2.408c2.96 0 5.599.567 7.942 1.701-1.86.127-3.352.385-4.92.805-.743.199-5.555 1.72-7.612 2.28a.8.8 0 0 1-1.01-.774V13.532a4.01 4.01 0 0 1 3.2-3.932z" fill="#1565D8"></path>
    <path fill-rule="evenodd" clip-rule="evenodd" d="M19.486 31.998c-2.986-1.915-6.446-2.873-10.4-2.873a.805.805 0 0 1-.8-.81V5.61c0-.448.358-.811.8-.811 3.9 0 7.372.867 10.4 2.601v24.597zm1.6-24.589c3.06-1.74 6.532-2.609 10.4-2.609.442 0 .8.363.8.81v22.704a.805.805 0 0 1-.8.811c-3.923 0-7.384.959-10.4 2.875V7.41z" fill="#1565D8"></path>
  </symbol>
  <symbol viewBox="0 0 40 40" fill="none" xmlns="http://www.w3.org/2000/svg" id="partners">
    <path d="M21.667 11.667a1.667 1.667 0 1 1-3.334 0V5a1.667 1.667 0 1 1 3.334 0v6.667z" fill="#B4CCEF"></path>
    <path fill-rule="evenodd" clip-rule="evenodd" d="M27.143 36.667l-2.265-7.21c-.51-1.622-1.701-2.9-3.224-3.452-2.703-.98-5.628.576-6.532 3.453l-2.265 7.209H5.732c-1.322 0-2.399-1.048-2.399-2.346 0-.395.103-.784.297-1.13l11.452-20.352c1.488-2.645 4.892-3.614 7.606-2.17a5.552 5.552 0 0 1 2.23 2.17L36.369 33.19c.642 1.14.211 2.57-.955 3.191a2.442 2.442 0 0 1-1.147.286h-7.124z" fill="#1565D8"></path>
    <path d="M23.395 30.052c-.362-1.115-1.198-1.985-2.258-2.357-1.865-.655-3.894.39-4.532 2.357L15 35h10l-1.605-4.948z" fill="#B4CCEF"></path>
  </symbol>
  <symbol viewBox="0 0 41 40" fill="none" xmlns="http://www.w3.org/2000/svg" id="rocket">
    <path fill-rule="evenodd" clip-rule="evenodd" d="M35.23 5.695c1.087 5.83-1.347 12.014-6.237 15.883l-12.957 10.25a.8.8 0 0 1-1.062-.062L8.52 25.313a.8.8 0 0 1-.061-1.063l10.25-12.956c3.868-4.89 10.052-7.325 15.882-6.239a.8.8 0 0 1 .64.64zm-11.372 5.077a4 4 0 1 0 5.657 5.656 4 4 0 0 0-5.657-5.656zm4.525 4.525a2.4 2.4 0 1 1-3.394-3.394 2.4 2.4 0 0 1 3.394 3.394z" fill="#1565D8"></path>
    <path opacity=".3" fill-rule="evenodd" clip-rule="evenodd" d="M13.086 32.25l-.71.711a2.18 2.18 0 0 1-3.084 0l-1.967-1.967a2.18 2.18 0 0 1 0-3.083l.71-.711 5.051 5.05zM8.882 20.8l-3.428-2.28a.821.821 0 0 1-.058-1.326l6.19-4.918a4.962 4.962 0 0 1 4.698-.806L8.882 20.8zM28.793 24a4.974 4.974 0 0 1-.804 4.797l-4.903 6.093a.819.819 0 0 1-1.325-.058l-2.275-3.43L28.793 24z" fill="#1565D8"></path>
  </symbol>
  <symbol viewBox="0 0 40 40" fill="none" xmlns="http://www.w3.org/2000/svg" id="phone">
    <path d="M15.088 18.535l5.524 5.829c.598.631 1.683.722 2.891.126 3.075-1.275 4.098-1.585 4.682-.97l6.35 6.7c.75.793.55 2.112-.29 2.998-4.358 4.598-11.44 4.598-15.799 0L6.586 20.702c-4.337-4.576-4.337-11.978 0-16.554.856-.904 2.173-1.127 2.951-.305l6.35 6.7c.55.58.255 1.662-.947 4.885-.558 1.258-.469 2.456.148 3.107z" fill="#1565D8"></path>
  </symbol>
  <symbol viewBox="0 0 40 40" fill="none" xmlns="http://www.w3.org/2000/svg" id="substract">
    <path fill-rule="evenodd" clip-rule="evenodd" d="M36.577 32H3.424l2.653-7.959.014-.041h27.82l.013.041L36.577 32zM16.8 27.2a.8.8 0 0 0 0 1.6h6.4a.8.8 0 0 0 0-1.6h-6.4zM6.4 22.4V7.2a2.4 2.4 0 0 1 2.4-2.4h22.4a2.4 2.4 0 0 1 2.4 2.4v15.2H6.4zm9.16-12.743l-1.347-.98-3.69 5.073 3.69 5.073 1.348-.98-2.977-4.093 2.977-4.093zm8.296 0l2.977 4.093-2.976 4.093 1.347.98 3.69-5.073-3.69-5.073-1.348.98zm-3.108-2.372l-3.333 12.5 1.61.43 3.334-12.5-1.61-.43z" fill="#1565D8"></path>
    <path opacity=".3" fill-rule="evenodd" clip-rule="evenodd" d="M36.72 33.6a4.001 4.001 0 0 1-3.92 3.2H7.2a4.001 4.001 0 0 1-3.92-3.2h33.44z" fill="#1565D8"></path>
  </symbol>
  <symbol viewBox="0 0 40 40" fill="none" xmlns="http://www.w3.org/2000/svg" id="syntax">
    <path opacity=".3" fill-rule="evenodd" clip-rule="evenodd" d="M25.6 28.8V36a2.4 2.4 0 0 1-2.4 2.4H5.6A2.4 2.4 0 0 1 3.2 36V18.4A2.4 2.4 0 0 1 5.6 16h7.2v8.8a4 4 0 0 0 4 4h8.8z" fill="#1565D8"></path>
    <path fill-rule="evenodd" clip-rule="evenodd" d="M16.8 4.8h17.6a2.4 2.4 0 0 1 2.4 2.4v17.6a2.4 2.4 0 0 1-2.4 2.4H16.8a2.4 2.4 0 0 1-2.4-2.4V7.2a2.4 2.4 0 0 1 2.4-2.4z" fill="#1565D8"></path>
  </symbol>
  <symbol viewBox="0 0 41 40" fill="none" xmlns="http://www.w3.org/2000/svg" id="workflow">
    <path opacity=".3" fill-rule="evenodd" clip-rule="evenodd" d="M19.532 31.755l1.134 1.134a1.182 1.182 0 1 1-1.672 1.67l-3.15-3.15a1.182 1.182 0 0 1 0-1.671l3.15-3.152a1.182 1.182 0 1 1 1.672 1.672l-1.134 1.133h7.782v2.364h-7.782zM32.04 19.842l1.134-1.134a1.182 1.182 0 0 1 1.671 1.671l-3.151 3.152a1.178 1.178 0 0 1-1.671 0l-3.152-3.152a1.182 1.182 0 1 1 1.672-1.67l1.134 1.133V12.06h2.363v7.782zM20.128 9.696h-7.782V7.333h7.782l-1.134-1.134a1.182 1.182 0 0 1 1.672-1.671l3.15 3.151a1.18 1.18 0 0 1 0 1.671l-3.15 3.151a1.182 1.182 0 1 1-1.672-1.67l1.134-1.135zM7.62 19.246l-1.134 1.133a1.182 1.182 0 1 1-1.671-1.67l3.151-3.152a1.182 1.182 0 0 1 1.671 0l3.152 3.151a1.182 1.182 0 1 1-1.672 1.671l-1.134-1.134v7.783H7.62v-7.782z" fill="#1565D8"></path>
    <path fill-rule="evenodd" clip-rule="evenodd" d="M14.315 11.666V5.363A2.363 2.363 0 0 0 11.952 3H5.65a2.363 2.363 0 0 0-2.364 2.363v6.303a2.363 2.363 0 0 0 2.364 2.363h6.302a2.363 2.363 0 0 0 2.363-2.363zm-2.363 13.392H5.65a2.363 2.363 0 0 0-2.364 2.364v6.302a2.363 2.363 0 0 0 2.364 2.364h6.302a2.363 2.363 0 0 0 2.363-2.364v-6.302a2.363 2.363 0 0 0-2.363-2.364zM34.011 14.03h-6.303a2.363 2.363 0 0 1-2.363-2.363V5.363A2.363 2.363 0 0 1 27.708 3h6.303a2.363 2.363 0 0 1 2.363 2.363v6.303a2.363 2.363 0 0 1-2.364 2.363zm-8.666 13.393v6.302a2.363 2.363 0 0 0 2.363 2.364h6.303a2.363 2.363 0 0 0 2.363-2.364v-6.302a2.363 2.363 0 0 0-2.364-2.364h-6.302a2.363 2.363 0 0 0-2.363 2.364z" fill="#1565D8"></path>
  </symbol>
</svg>