<svg width="40" height="40" viewBox="0 0 40 40" fill="none" xmlns="http://www.w3.org/2000/svg">
<path fill-rule="evenodd" clip-rule="evenodd" d="M10.5338 14.1905C17.6215 15.1907 23.1653 12.6073 27.0259 6.47501C27.0452 6.44427 27.0629 6.41275 27.079 6.38059C28.5647 8.05239 29.4671 10.2541 29.4671 12.6666V16.1333C29.4671 19.6369 27.546 22.7867 24.5678 24.4275C24.1797 24.158 23.7083 24 23.2 24C21.8746 24 20.8 25.0745 20.8 26.4C20.8 27.7254 21.8746 28.7999 23.2 28.7999C23.8713 28.7999 24.4783 28.5244 24.9138 28.0801C24.2648 30.1189 22.3103 31.6 20 31.6C17.1619 31.6 14.8607 29.3648 14.8572 26.6063L15.6161 24.5257C12.5338 22.9146 10.5338 19.7081 10.5338 16.1333V14.1905ZM10.5525 12.0658C10.8625 7.11742 14.974 3.19995 20.0004 3.19995C22.119 3.19995 24.0749 3.89585 25.6523 5.07152C25.6038 5.12137 25.5593 5.17785 25.5197 5.24077C22.0452 10.7598 17.1344 13.0258 10.6456 12.0741C10.6144 12.0695 10.5833 12.0668 10.5525 12.0658ZM12.8811 27.6535C13.4037 31.0197 16.3919 33.6 20 33.6C23.6089 33.6 26.5976 31.0186 27.1194 27.6514L30.9556 28.425C32.4795 28.7223 33.6937 29.8745 34.0703 31.3808L35.1766 35.8059C35.3028 36.3108 34.9209 36.7999 34.4004 36.7999H5.60044C5.07999 36.7999 4.6981 36.3108 4.82433 35.8059L5.92917 31.3865C6.30666 29.8766 7.52574 28.7227 9.04645 28.4302L12.8811 27.6535Z" fill="#1565D8"/>
<path opacity="0.3" fill-rule="evenodd" clip-rule="evenodd" d="M23.2 27.2C23.6419 27.2 24 26.8418 24 26.4C24 25.9581 23.6419 25.6 23.2 25.6C22.7582 25.6 22.4 25.9581 22.4 26.4C22.4 26.8418 22.7582 27.2 23.2 27.2Z" fill="#1565D8"/>
<path opacity="0.3" fill-rule="evenodd" clip-rule="evenodd" d="M30.9707 11.2H31.2C32.5254 11.2 33.6 12.2745 33.6 13.6V16.8C33.6 18.1254 32.5254 19.2 31.2 19.2H30.6346C30.9176 18.2182 31.067 17.1877 31.067 16.1333V12.6666C31.067 12.1694 31.0342 11.6798 30.9707 11.2Z" fill="#1565D8"/>
<path opacity="0.3" fill-rule="evenodd" clip-rule="evenodd" d="M9.36612 19.2H8.80002C7.47454 19.2 6.40002 18.1254 6.40002 16.8V13.6C6.40002 12.2745 7.47454 11.2 8.80002 11.2H9.03008C8.96654 11.6798 8.93375 12.1694 8.93375 12.6666V16.1333C8.93375 17.1877 9.08319 18.2182 9.36612 19.2Z" fill="#1565D8"/>
</svg>
