<svg width="91" height="28" viewBox="0 0 91 28" fill="none" xmlns="http://www.w3.org/2000/svg">
<path fill-rule="evenodd" clip-rule="evenodd" d="M21.3226 0.96875V21.4531C21.3226 21.724 21.4134 21.9505 21.5949 22.1328C21.7765 22.3151 22.0021 22.4062 22.2718 22.4062H25.7571C26.0268 22.4062 26.2524 22.3151 26.4339 22.1328C26.6155 21.9505 26.7062 21.724 26.7062 21.4531V12.056C28.1896 10.5664 29.5796 9.23438 30.8762 9.23438C32.8575 9.23438 33.8481 9.99478 33.8481 12.4844V21.4531C33.8481 21.724 33.9388 21.9505 34.1204 22.1328C34.3019 22.3151 34.5275 22.4062 34.7972 22.4062H38.267C38.5471 22.4062 38.7779 22.3151 38.9594 22.1328C39.1409 21.9505 39.2317 21.724 39.2317 21.4531V12.4844C39.2317 9.9427 38.5989 8.05469 37.3334 6.82031C36.0679 5.58593 34.4264 4.96875 32.4088 4.96875C30.3912 4.96875 28.4904 5.72395 26.7062 7.23438V0.96875C26.7062 0.687499 26.6155 0.45573 26.4339 0.273438C26.2524 0.0911449 26.0268 0 25.7571 0H22.2718C22.0021 0 21.7765 0.0911449 21.5949 0.273438C21.4134 0.45573 21.3226 0.687499 21.3226 0.96875ZM0.286133 13.8672C0.286133 16.7266 1.08485 18.9167 2.6823 20.4375C4.27976 21.9583 6.50994 22.7188 9.37291 22.7188C14.5218 22.7282 17.0185 21.6328 17.495 19.1719C17.5436 18.9209 17.2048 18.1263 15.7026 17.9157C14.2004 17.705 13.2265 17.6094 12.7182 18.2344C12.2099 18.8594 11.266 19.1719 9.88637 19.1719C8.50675 19.1719 7.50317 18.8802 6.8756 18.2969C6.24803 17.7135 5.88238 16.7813 5.77865 15.5H17.495C17.7751 15.5 18.0059 15.4089 18.1874 15.2266C18.3689 15.0443 18.4597 14.8125 18.4597 14.5312V13.6406C18.4597 10.8489 17.661 8.70574 16.0635 7.21094C14.4661 5.71614 12.2411 4.96875 9.38847 4.96875C6.53587 4.96875 4.30569 5.73697 2.69786 7.27344C1.09003 8.8099 0.286133 11.0078 0.286133 13.8672ZM12.9827 12.2031H5.74753C5.87201 9.74478 7.08305 8.51562 9.38069 8.51562C11.6783 8.51562 12.879 9.74478 12.9827 12.2031ZM86.2861 14C88.4953 14 90.2861 12.2091 90.2861 10C90.2861 7.79086 88.4953 6 86.2861 6C84.077 6 82.2861 7.79086 82.2861 10C82.2861 12.2091 84.077 14 86.2861 14ZM46.0623 24.0312L48.1006 24.2969C49.3387 24.2969 50.2609 23.5243 50.8672 21.9793C50.8781 21.9514 50.7895 21.937 50.6251 21.9102C49.9983 21.8082 48.2703 21.5271 46.7625 19.6383C45.0342 17.4732 44.7774 16.6374 44.1079 14.4584L44.1074 14.457C44.0398 14.2368 43.9679 14.003 43.8899 13.7527L41.5716 6.2058C41.5404 6.12247 41.5249 6.02612 41.5249 5.91674C41.5249 5.80736 41.5897 5.67455 41.7194 5.5183C41.849 5.36205 42.0435 5.27872 42.3029 5.2683L45.3621 5.28125C45.663 5.28125 45.9508 5.38281 46.2257 5.58594C46.5006 5.78906 46.6795 6.04167 46.7625 6.34375L48.8008 12.9688C49.3091 14.5938 49.8251 15.7187 50.349 16.3438C50.8728 16.9688 51.4926 17.2812 52.2083 17.2812L55.3047 6.34375C55.3877 6.04167 55.551 5.78906 55.7948 5.58594C56.0386 5.38281 56.3109 5.28125 56.6117 5.28125H59.8948C60.1541 5.28125 60.346 5.36458 60.4705 5.53125C60.5949 5.69792 60.6572 5.83594 60.6572 5.94531C60.6572 6.05469 60.6468 6.14583 60.626 6.21875L56.5494 20.8125C55.8233 23.3958 54.9235 25.2396 53.8499 26.3438C52.7763 27.4479 51.3941 28 49.7032 28L49.0533 27.9967C47.7024 27.9822 46.7236 27.9208 46.1168 27.8125C45.4166 27.6875 44.9783 27.5339 44.802 27.3516C44.6256 27.1693 44.5375 26.9583 44.5375 26.7188V25C44.5375 24.7187 44.6256 24.487 44.802 24.3047C44.9783 24.1224 45.2065 24.0312 45.4866 24.0312H46.0623ZM62.431 21.2812C61.0617 20.3229 60.3771 18.9688 60.3771 17.2188C60.3771 15.4688 61.0643 14.125 62.4387 13.1875C63.8132 12.25 65.5844 11.7812 67.7523 11.7812H72.9025C72.9025 10.5625 72.6484 9.71354 72.1401 9.23438C71.6318 8.75521 70.7424 8.51562 69.4716 8.51562C68.2857 8.51562 67.4295 8.79011 66.9032 9.3391L66.7954 9.46094C66.2819 10.0911 64.6656 9.87688 63.2226 9.59891C61.7797 9.32095 61.6862 8.5848 61.815 8.2017C62.5394 6.04639 65.3017 4.96875 70.1018 4.96875C72.5706 4.96875 74.5518 5.52343 76.0456 6.63281C77.5393 7.74219 78.2861 9.45832 78.2861 11.7812V21.4531C78.2861 21.7344 78.198 21.9635 78.0216 22.1406C77.8453 22.3177 77.6171 22.4062 77.337 22.4062H74.334C74.0539 22.4062 73.8257 22.3151 73.6494 22.1328C73.473 21.9505 73.3849 21.724 73.3849 21.4531V20.9688C71.7459 22.1458 69.8555 22.7318 67.7134 22.7266C65.5714 22.7214 63.8106 22.2396 62.431 21.2812ZM68.1257 15.3281H72.9025V17.7656C71.4192 18.7031 69.8788 19.1719 68.2813 19.1719C67.4826 19.1719 66.8654 18.9896 66.4298 18.625C65.9941 18.2604 65.7763 17.7969 65.7763 17.2344C65.7763 16.6719 65.9863 16.2135 66.4064 15.8594C66.8265 15.5052 67.3996 15.3281 68.1257 15.3281Z" fill="white"/>
</svg>
