<svg width="0" height="0" class="hidden">
  <symbol viewBox="0 0 15 15" xmlns="http://www.w3.org/2000/svg" id="download">
    <path d="M6.406.75c-.383 0-.656.3-.656.656V6H3.344c-.492 0-.739.602-.383.957l4.156 4.156a.546.546 0 0 0 .738 0l4.157-4.156c.355-.355.11-.957-.383-.957H9.25V1.406c0-.355-.3-.656-.656-.656H6.406zM14.5 11.031c0-.355-.3-.656-.656-.656h-4.02l-1.34 1.34a1.372 1.372 0 0 1-1.996 0l-1.34-1.34H1.156c-.383 0-.656.3-.656.656v3.063c0 .383.273.656.656.656h12.688a.648.648 0 0 0 .656-.656V11.03zm-3.39 2.406a.55.55 0 0 1-.547.547.549.549 0 0 1-.547-.546c0-.301.246-.547.546-.547.301 0 .547.246.547.546zm1.75 0a.55.55 0 0 1-.547.547.549.549 0 0 1-.547-.546c0-.301.246-.547.546-.547.301 0 .547.246.547.546z"></path>
  </symbol>
  <symbol viewBox="0 0 12 15" xmlns="http://www.w3.org/2000/svg" id="fire">
    <path d="M6.656 1.406c0-.629-.847-.875-1.23-.355C2.062 6 6.875 6.219 6.875 8.625c0 .984-.82 1.777-1.777 1.75-.985 0-1.723-.793-1.723-1.75V6.273c0-.601-.738-.875-1.148-.437C1.488 6.602.75 7.914.75 9.5A5.251 5.251 0 0 0 6 14.75c2.871 0 5.25-2.352 5.25-5.25 0-4.648-4.594-5.277-4.594-8.094z"></path>
  </symbol>
  <symbol viewBox="0 0 19 15" xmlns="http://www.w3.org/2000/svg" id="install">
    <path d="M6.875 7.75c1.914 0 3.5-1.559 3.5-3.5 0-1.914-1.586-3.5-3.5-3.5a3.507 3.507 0 0 0-3.5 3.5 3.49 3.49 0 0 0 3.5 3.5zm2.434.875h-.465c-.602.3-1.258.438-1.969.438-.71 0-1.395-.137-1.996-.438h-.465C2.391 8.625.75 10.293.75 12.316v1.121c0 .739.574 1.313 1.313 1.313h9.624c.711 0 1.313-.574 1.313-1.313v-1.12c0-2.024-1.668-3.692-3.691-3.692zm8.832-3.5l-.766-.766a.285.285 0 0 0-.438 0l-2.87 2.844-1.258-1.258c-.11-.136-.329-.136-.465 0l-.766.766c-.11.11-.11.328 0 .465l2.242 2.242a.315.315 0 0 0 .465 0l3.856-3.828a.315.315 0 0 0 0-.465z"></path>
  </symbol>
  <symbol viewBox="0 0 15 15" xmlns="http://www.w3.org/2000/svg" id="rating">
    <path d="M6.707 1.242L4.93 4.88l-4.02.574c-.71.11-.984.984-.465 1.504l2.871 2.816-.683 3.965c-.11.711.656 1.258 1.285.93L7.5 12.781l3.555 1.887c.629.328 1.394-.219 1.285-.93l-.684-3.965 2.871-2.816c.52-.52.246-1.394-.464-1.504L10.07 4.88 8.266 1.242c-.301-.629-1.23-.656-1.559 0z"></path>
  </symbol>
  <symbol aria-hidden="true" data-prefix="fas" data-icon="heart" xmlns="http://www.w3.org/2000/svg" viewBox="0 0 512 512" id="heart-solid">
    <path d="M462.3 62.6C407.5 15.9 326 24.3 275.7 76.2L256 96.5l-19.7-20.3C186.1 24.3 104.5 15.9 49.7 62.6c-62.8 53.6-66.1 149.8-9.9 207.9l193.5 199.8c12.5 12.9 32.8 12.9 45.3 0l193.5-199.8c56.3-58.1 53-154.3-9.8-207.9z"></path>
  </symbol>
</svg>