<svg width="41" height="40" viewBox="0 0 41 40" fill="none" xmlns="http://www.w3.org/2000/svg">
<path fill-rule="evenodd" clip-rule="evenodd" d="M11.7787 15.7021C13.8814 12.7139 15.1939 9.28511 15.7205 5.40334C15.7707 5.03356 16.0324 4.72608 16.3917 4.61489C20.0128 3.49425 22.0715 5.27503 22.0375 9.33558C22.0309 10.1238 21.9946 10.8244 21.9171 11.8959C21.7442 14.2892 21.7579 14.9424 22.0259 15.3819C22.2835 15.8044 23.1197 15.9486 25.0974 15.5731C25.7214 15.4546 26.3475 15.3203 27.0409 15.159C27.347 15.0878 29.5517 14.5498 30.1152 14.4282C31.1903 14.196 31.9616 14.0978 32.6399 14.1394C34.4774 14.2521 35.4525 15.4352 35.6209 17.7018C35.9177 21.6935 35.0008 29.7113 34.0862 32.6646C33.1515 35.6825 31.5215 36.8216 27.6089 36.8904C25.0933 36.9346 21.2243 36.9346 15.9838 36.8903C14.646 36.8592 13.4336 36.6001 12.3553 36.1158C12.658 35.489 12.8275 34.787 12.8275 34.0456V18.6856C12.8275 17.5581 12.4353 16.5213 11.7787 15.7021Z" fill="#1565D8"/>
<path opacity="0.3" fill-rule="evenodd" clip-rule="evenodd" d="M6.04854 15.8057C4.44401 15.8057 3.14328 17.0951 3.14328 18.6857V34.0457C3.14328 35.6362 4.44401 36.9257 6.04854 36.9257H7.98538C9.58991 36.9257 10.8906 35.6362 10.8906 34.0457V18.6857C10.8906 17.0951 9.58991 15.8057 7.98538 15.8057H6.04854Z" fill="#1565D8"/>
</svg>
