<svg width="40" height="40" viewBox="0 0 40 40" fill="none" xmlns="http://www.w3.org/2000/svg">
<path fill-rule="evenodd" clip-rule="evenodd" d="M5.6 3.2H24.8C26.1255 3.2 27.2 4.27451 27.2 5.6V24.8C27.2 26.1255 26.1255 27.2 24.8 27.2H5.6C4.27451 27.2 3.2 26.1255 3.2 24.8V5.6C3.2 4.27451 4.27451 3.2 5.6 3.2ZM33.6 12.8H34.4C35.7255 12.8 36.8 13.8745 36.8 15.2V34.4C36.8 35.7255 35.7255 36.8 34.4 36.8H15.2C13.8745 36.8 12.8 35.7255 12.8 34.4V33.6H29.6C31.8091 33.6 33.6 31.8091 33.6 29.6V12.8Z" fill="#1565D8"/>
<path opacity="0.3" fill-rule="evenodd" clip-rule="evenodd" d="M28.8 8H29.6C30.9255 8 32 9.07452 32 10.4V29.6C32 30.9255 30.9255 32 29.6 32H10.4C9.07452 32 8 30.9255 8 29.6V28.8H24.8C27.0091 28.8 28.8 27.0091 28.8 24.8V8Z" fill="#1565D8"/>
</svg>
