<svg width="41" height="40" viewBox="0 0 41 40" fill="none" xmlns="http://www.w3.org/2000/svg">
<path opacity="0.3" fill-rule="evenodd" clip-rule="evenodd" d="M33.8861 27.9772V9.6001C35.7119 9.97187 37.0861 11.5911 37.0861 13.5323V34.3972C37.0861 34.9259 36.5852 35.3102 36.0765 35.1716C34.0195 34.6113 29.2069 33.0895 28.4638 32.8905C26.9001 32.4717 25.4116 32.2146 23.5588 32.0873C25.9173 30.9522 28.5507 30.3847 31.4861 30.3847C32.8116 30.3847 33.8861 29.3068 33.8861 27.9772ZM6.68615 9.6001V27.9772C6.68615 29.3068 7.76066 30.3847 9.08614 30.3847C12.0468 30.3847 14.6849 30.9523 17.0281 32.0863C15.1685 32.2132 13.6763 32.4706 12.1085 32.8905C11.3654 33.0895 6.55282 34.6113 4.49579 35.1716C3.98708 35.3102 3.48615 34.9259 3.48615 34.3972V13.5323C3.48615 11.5911 4.86035 9.97187 6.68615 9.6001Z" fill="#1565D8"/>
<path fill-rule="evenodd" clip-rule="evenodd" d="M19.4861 31.9978C16.5003 30.0832 13.0397 29.1251 9.08613 29.1251C8.64431 29.1251 8.28613 28.7621 8.28613 28.3143V5.61088C8.28613 5.16307 8.64431 4.80005 9.08613 4.80005C12.9865 4.80005 16.4578 5.66654 19.4861 7.40131V31.9978ZM21.0861 7.40947C24.1469 5.6696 27.6181 4.80005 31.4861 4.80005C31.928 4.80005 32.2861 5.16307 32.2861 5.61088V28.3143C32.2861 28.7621 31.928 29.1251 31.4861 29.1251C27.5626 29.1251 24.1018 30.0836 21.0861 32V7.40947Z" fill="#1565D8"/>
</svg>
