<svg width="40" height="40" viewBox="0 0 40 40" fill="none" xmlns="http://www.w3.org/2000/svg">
<path d="M21.6667 11.6667C21.6667 12.5872 20.9205 13.3334 20 13.3334C19.0796 13.3334 18.3334 12.5872 18.3334 11.6667V5.00004C18.3334 4.07957 19.0796 3.33337 20 3.33337C20.9205 3.33337 21.6667 4.07957 21.6667 5.00004V11.6667Z" fill="#B4CCEF"/>
<path fill-rule="evenodd" clip-rule="evenodd" d="M27.1427 36.6667L24.8776 29.4578C24.3677 27.8352 23.1769 26.5566 21.654 26.0048C18.9507 25.0255 16.0262 26.5813 15.1223 29.4578L12.8571 36.6667H5.7323C4.41022 36.6667 3.33337 35.6193 3.33337 34.3211C3.33337 33.9256 3.43564 33.5366 3.63048 33.1904L15.0816 12.8394C16.5701 10.1939 19.974 9.22519 22.6881 10.6698C23.6284 11.1703 24.4024 11.9231 24.918 12.8394L36.3691 33.1904C37.0105 34.3303 36.5802 35.7606 35.4143 36.3812C35.0622 36.5686 34.6679 36.6667 34.2673 36.6667H27.1427Z" fill="#1565D8"/>
<path d="M23.3949 30.0515C23.0334 28.9372 22.1968 28.0669 21.1371 27.6951C19.2716 27.0403 17.2427 28.0859 16.6051 30.0515L15 35H25L23.3949 30.0515Z" fill="#B4CCEF"/>
</svg>
