<svg width="40" height="40" viewBox="0 0 40 40" fill="none" xmlns="http://www.w3.org/2000/svg">
<path d="M15.088 18.535L20.6115 24.3636C21.2103 24.9955 22.2949 25.0857 23.5031 24.4903C26.578 23.2154 27.6011 22.9046 28.1852 23.5209L34.5344 30.2209C35.2849 31.0129 35.0846 32.332 34.2454 33.2177C29.8874 37.8163 22.8041 37.8163 18.4461 33.2177L6.58547 20.7019C2.24934 16.1263 2.24934 8.72372 6.58547 4.14809C7.44245 3.24378 8.75851 3.02127 9.53731 3.84309L15.8865 10.543C16.4369 11.1237 16.1418 12.2054 14.9403 15.4281C14.3817 16.6861 14.4712 17.8842 15.088 18.535Z" fill="#1565D8"/>
</svg>
