<svg width="0" height="0" class="hidden">
  <symbol viewBox="0 0 7 10" xmlns="http://www.w3.org/2000/svg" id="angle-right">
    <path d="M6.125 5.215c.246-.246.246-.656 0-.93L2.406.566c-.273-.246-.683-.246-.93 0l-.628.63c-.246.273-.246.683 0 .929L3.5 4.777.848 7.402c-.246.246-.246.657 0 .93l.629.602c.246.273.656.273.93 0l3.718-3.72z"></path>
  </symbol>
  <symbol viewBox="0 0 10 7" xmlns="http://www.w3.org/2000/svg" id="angle-down">
    <path d="M4.321 6.402a.644.644 0 0 0 .903 0l3.718-3.718c.274-.274.274-.684 0-.93l-.601-.629c-.274-.246-.684-.246-.93 0L4.76 3.777 2.134 1.125c-.246-.246-.656-.246-.93 0l-.601.629c-.274.246-.274.656 0 .93L4.32 6.402z"></path>
  </symbol>
  <symbol viewBox="0 0 15 14" xmlns="http://www.w3.org/2000/svg" id="arrow-right">
    <path d="M6.224 1.094c-.313.312-.282.781 0 1.093l3.78 3.563H1.037a.74.74 0 0 0-.75.75v1c0 .438.313.75.75.75h8.969l-3.781 3.594a.814.814 0 0 0 0 1.094l.687.687c.313.281.781.281 1.063 0l6.093-6.094c.282-.281.282-.75 0-1.062L7.974.406c-.282-.281-.75-.281-1.063 0l-.687.688z"></path>
  </symbol>
  <symbol aria-hidden="true" data-prefix="fas" data-icon="quote-left" xmlns="http://www.w3.org/2000/svg" viewBox="0 0 512 512" id="quote-left-solid">
    <path d="M464 256h-80v-64c0-35.3 28.7-64 64-64h8c13.3 0 24-10.7 24-24V56c0-13.3-10.7-24-24-24h-8c-88.4 0-160 71.6-160 160v240c0 26.5 21.5 48 48 48h128c26.5 0 48-21.5 48-48V304c0-26.5-21.5-48-48-48zm-288 0H96v-64c0-35.3 28.7-64 64-64h8c13.3 0 24-10.7 24-24V56c0-13.3-10.7-24-24-24h-8C71.6 32 0 103.6 0 192v240c0 26.5 21.5 48 48 48h128c26.5 0 48-21.5 48-48V304c0-26.5-21.5-48-48-48z"></path>
  </symbol>
</svg>