<svg width="41" height="40" viewBox="0 0 41 40" fill="none" xmlns="http://www.w3.org/2000/svg">
<path fill-rule="evenodd" clip-rule="evenodd" d="M35.2308 5.69539C36.317 11.5255 33.8826 17.709 28.9926 21.5775L16.0358 31.8275C15.7174 32.0794 15.2608 32.0529 14.9738 31.7658L8.52045 25.3125C8.23339 25.0254 8.20685 24.5688 8.45873 24.2504L18.7088 11.2937C22.5772 6.40368 28.7607 3.96922 34.5909 5.05545C34.9159 5.11602 35.1702 5.37032 35.2308 5.69539ZM23.8577 10.7716C22.2956 12.3337 22.2956 14.8664 23.8577 16.4285C25.4198 17.9906 27.9525 17.9906 29.5146 16.4285C31.0767 14.8664 31.0767 12.3337 29.5146 10.7716C27.9525 9.20952 25.4198 9.20952 23.8577 10.7716ZM28.3832 15.2971C27.4459 16.2344 25.9263 16.2344 24.9891 15.2971C24.0518 14.3598 24.0518 12.8403 24.9891 11.903C25.9263 10.9657 27.4459 10.9657 28.3832 11.903C29.3204 12.8403 29.3204 14.3598 28.3832 15.2971Z" fill="#1565D8"/>
<path opacity="0.3" fill-rule="evenodd" clip-rule="evenodd" d="M13.0861 32.2508L12.3755 32.9614C11.5241 33.8128 10.1437 33.8128 9.29231 32.9614L7.32467 30.9938C6.47327 30.1424 6.47327 28.762 7.32467 27.9106L8.0353 27.2L13.0861 32.2508ZM8.88225 20.8L5.45354 18.5206C4.98891 18.2117 4.95974 17.5414 5.39579 17.1935L11.586 12.2756C12.9199 11.2158 14.6951 10.9227 16.2843 11.4695L8.88225 20.8ZM28.7933 24C29.3758 25.6207 29.0798 27.4426 27.9893 28.7975L23.0856 34.8901C22.7385 35.3264 22.0695 35.2972 21.7612 34.8323L19.4861 31.4017L28.7933 24Z" fill="#1565D8"/>
</svg>
