<svg width="0" height="0" class="hidden">
  <symbol viewBox="0 0 16 17" xmlns="http://www.w3.org/2000/svg" id="google">
    <path d="M15.958 8.52c0-.5-.062-.874-.125-1.28H8.458v2.656h4.375c-.156 1.156-1.312 3.343-4.375 3.343-2.656 0-4.812-2.187-4.812-4.906 0-4.344 5.125-6.344 7.875-3.687l2.125-2.031A7.516 7.516 0 0 0 8.458.583a7.729 7.729 0 0 0-7.75 7.75 7.709 7.709 0 0 0 7.75 7.75c4.47 0 7.5-3.125 7.5-7.562z"></path>
  </symbol>
  <symbol viewBox="0 0 16 16" xmlns="http://www.w3.org/2000/svg" id="github">
    <path d="M5.406 12.438c0-.063-.062-.126-.156-.126s-.156.063-.156.126c0 .062.062.124.156.093.094 0 .156-.031.156-.094zm-.968-.157c0 .063.062.156.156.156a.15.15 0 0 0 .187-.062c0-.063-.031-.125-.125-.156-.093-.031-.187 0-.218.062zm1.406-.031c-.094 0-.157.063-.157.156 0 .063.094.094.188.063s.156-.063.125-.125c0-.063-.094-.125-.156-.094zm2.031-12C3.562.25.25 3.563.25 7.875c0 3.469 2.156 6.438 5.281 7.5.407.063.532-.188.532-.375v-1.938s-2.188.47-2.657-.937c0 0-.344-.906-.844-1.125 0 0-.718-.5.032-.5 0 0 .781.063 1.219.813.687 1.218 1.812.874 2.28.656.063-.5.25-.844.5-1.063-1.75-.187-3.53-.437-3.53-3.437 0-.875.25-1.282.75-1.844-.094-.219-.344-1.031.093-2.125.625-.188 2.156.844 2.156.844.625-.188 1.282-.25 1.938-.25.688 0 1.344.062 1.969.25 0 0 1.5-1.063 2.156-.844.438 1.094.156 1.906.094 2.125.5.563.812.969.812 1.844 0 3-1.844 3.25-3.594 3.437.282.25.532.719.532 1.469 0 1.031-.031 2.344-.031 2.594 0 .219.156.469.562.375 3.125-1.031 5.25-4 5.25-7.469C15.75 3.562 12.219.25 7.875.25zM3.281 11.031c-.062.031-.031.125 0 .188.063.031.125.062.188.031.031-.031.031-.125-.031-.188-.063-.03-.126-.062-.157-.03zm-.344-.25c-.03.063 0 .094.063.125s.125.031.156-.031c0-.031-.031-.063-.094-.094-.062-.031-.093-.031-.124 0zm1 1.125c-.03.031-.03.125.063.188.063.062.156.094.188.031.03-.031.03-.125-.032-.188-.062-.062-.156-.093-.218-.03zm-.343-.469c-.063.032-.063.126 0 .188.062.063.125.094.187.063.031-.032.031-.126 0-.188-.062-.063-.125-.094-.187-.063z"></path>
  </symbol>
  <symbol viewBox="0 0 15 15" xmlns="http://www.w3.org/2000/svg" id="instagram">
    <path d="M13.333.333H1.303c-.532 0-.97.469-.97 1.032v11.968c0 .563.438 1 .97 1h12.03c.532 0 1-.437 1-1V1.364c0-.562-.468-1.03-1-1.03zm-8.78 12H2.49V5.677h2.062v6.656zM3.52 4.74c-.688 0-1.219-.53-1.219-1.187A1.22 1.22 0 0 1 3.52 2.334c.656 0 1.187.563 1.187 1.219 0 .656-.53 1.187-1.187 1.187zm8.812 7.594H10.24v-3.25c0-.75 0-1.75-1.063-1.75-1.094 0-1.25.844-1.25 1.719v3.281H5.865V5.677h1.968v.906h.032c.28-.531.968-1.094 1.968-1.094 2.094 0 2.5 1.407 2.5 3.188v3.656z"></path>
  </symbol>
  <symbol viewBox="0 0 15 15" xmlns="http://www.w3.org/2000/svg" id="linked">
    <path d="M7.333 3.74c-2 0-3.593 1.624-3.593 3.593 0 2 1.593 3.594 3.593 3.594a3.594 3.594 0 0 0 3.594-3.594c0-1.969-1.625-3.594-3.594-3.594zm0 5.937A2.34 2.34 0 0 1 4.99 7.333c0-1.281 1.03-2.312 2.343-2.312a2.307 2.307 0 0 1 2.313 2.312c0 1.313-1.031 2.344-2.313 2.344zm4.563-6.063a.84.84 0 0 0-.844-.843.84.84 0 0 0-.844.844.84.84 0 0 0 .844.843.84.84 0 0 0 .844-.844zm2.375.844c-.063-1.125-.313-2.125-1.125-2.937C12.333.708 11.333.458 10.208.396c-1.156-.063-4.625-.063-5.78 0C3.301.458 2.332.708 1.49 1.52.677 2.333.427 3.333.365 4.458c-.063 1.156-.063 4.625 0 5.781.062 1.125.312 2.094 1.125 2.938.843.813 1.812 1.063 2.937 1.125 1.156.063 4.625.063 5.781 0 1.125-.063 2.125-.313 2.938-1.125.812-.844 1.062-1.813 1.125-2.938.062-1.156.062-4.625 0-5.78zm-1.5 7c-.219.625-.719 1.094-1.313 1.344-.937.375-3.125.281-4.125.281-1.03 0-3.218.094-4.125-.281a2.37 2.37 0 0 1-1.343-1.344c-.375-.906-.282-3.094-.282-4.125 0-1-.093-3.187.282-4.125a2.41 2.41 0 0 1 1.343-1.312c.907-.375 3.094-.281 4.125-.281 1 0 3.188-.094 4.125.28.594.22 1.063.72 1.313 1.313.375.938.281 3.125.281 4.125 0 1.031.094 3.219-.281 4.125z"></path>
  </symbol>
  <symbol viewBox="0 0 17 14" xmlns="http://www.w3.org/2000/svg" id="twitter">
    <path d="M14.677 4.083a6.95 6.95 0 0 0 1.625-1.687 6.15 6.15 0 0 1-1.875.5 3.206 3.206 0 0 0 1.438-1.813 6.93 6.93 0 0 1-2.063.813A3.282 3.282 0 0 0 11.396.865a3.28 3.28 0 0 0-3.281 3.28c0 .25.03.5.093.75a9.52 9.52 0 0 1-6.78-3.437A3.192 3.192 0 0 0 .99 3.115c0 1.124.562 2.124 1.468 2.718-.53-.031-1.062-.156-1.5-.406v.031a3.285 3.285 0 0 0 2.625 3.219c-.25.063-.562.125-.843.125-.22 0-.407-.031-.625-.063a3.266 3.266 0 0 0 3.062 2.282 6.597 6.597 0 0 1-4.062 1.406c-.282 0-.532-.031-.782-.063 1.438.938 3.157 1.47 5.032 1.47 6.03 0 9.312-4.97 9.312-9.313v-.438z"></path>
  </symbol>
</svg>