<svg width="40" height="40" viewBox="0 0 40 40" fill="none" xmlns="http://www.w3.org/2000/svg">
<path opacity="0.3" fill-rule="evenodd" clip-rule="evenodd" d="M25.6 28.8V36C25.6 37.3255 24.5255 38.4 23.2 38.4H5.6C4.27451 38.4 3.2 37.3255 3.2 36V18.4C3.2 17.0745 4.27451 16 5.6 16H12.8V24.8C12.8 27.0091 14.5909 28.8 16.8 28.8H25.6Z" fill="#1565D8"/>
<path fill-rule="evenodd" clip-rule="evenodd" d="M16.8 4.79999H34.4C35.7255 4.79999 36.8 5.8745 36.8 7.19999V24.8C36.8 26.1255 35.7255 27.2 34.4 27.2H16.8C15.4745 27.2 14.4 26.1255 14.4 24.8V7.19999C14.4 5.8745 15.4745 4.79999 16.8 4.79999Z" fill="#1565D8"/>
</svg>
