<svg width="40" height="40" viewBox="0 0 40 40" fill="none" xmlns="http://www.w3.org/2000/svg">
<path fill-rule="evenodd" clip-rule="evenodd" d="M36.5772 32H3.42401L6.07699 24.0411C6.08158 24.0273 6.08627 24.0136 6.09109 24H33.9101C33.915 24.0136 33.9197 24.0273 33.9242 24.0411L36.5772 32ZM16.8 27.2C16.3582 27.2 16 27.5582 16 28C16 28.4418 16.3582 28.8 16.8 28.8H23.2C23.6418 28.8 24 28.4418 24 28C24 27.5582 23.6418 27.2 23.2 27.2H16.8ZM6.40001 22.4V7.2C6.40001 5.87452 7.47452 4.8 8.80001 4.8H31.2C32.5255 4.8 33.6 5.87452 33.6 7.2V22.4H6.40001ZM15.5609 9.65681L14.213 8.67653L10.5232 13.75L14.213 18.8235L15.5609 17.8432L12.584 13.75L15.5609 9.65681ZM23.8565 9.65681L26.8334 13.75L23.8565 17.8432L25.2044 18.8235L28.8942 13.75L25.2044 8.67653L23.8565 9.65681ZM20.7484 7.28528L17.415 19.7853L19.0254 20.2147L22.3588 7.71472L20.7484 7.28528Z" fill="#1565D8"/>
<path opacity="0.3" fill-rule="evenodd" clip-rule="evenodd" d="M36.72 33.6C36.3494 35.4258 34.7352 36.8 32.8 36.8H7.20001C5.26485 36.8 3.65065 35.4258 3.28003 33.6L36.72 33.6Z" fill="#1565D8"/>
</svg>
