<svg width="41" height="40" viewBox="0 0 41 40" fill="none" xmlns="http://www.w3.org/2000/svg">
<path opacity="0.3" fill-rule="evenodd" clip-rule="evenodd" d="M19.5317 31.7548L20.6656 32.8887C21.1271 33.3502 21.1271 34.0984 20.6656 34.5599C20.2041 35.0214 19.4559 35.0214 18.9944 34.5599L15.8432 31.4087C15.3817 30.9472 15.3817 30.199 15.8432 29.7375L18.9944 26.5863C19.4559 26.1248 20.2041 26.1248 20.6656 26.5863C21.1271 27.0478 21.1271 27.796 20.6656 28.2575L19.5317 29.3914H27.3142V31.7548H19.5317ZM32.041 19.8422L33.1749 18.7082C33.6364 18.2468 34.3846 18.2468 34.8461 18.7082C35.3076 19.1697 35.3076 19.9179 34.8461 20.3794L31.6949 23.5306C31.4642 23.7614 31.1617 23.8768 30.8593 23.8768C30.5569 23.8768 30.2545 23.7614 30.0237 23.5306L26.8725 20.3794C26.411 19.9179 26.411 19.1697 26.8725 18.7082C27.334 18.2468 28.0822 18.2468 28.5437 18.7082L29.6776 19.8422V12.0597H32.041V19.8422ZM20.1284 9.69627H12.3459V7.33286H20.1284L18.9944 6.19894C18.533 5.73746 18.533 4.98924 18.9944 4.52775C19.4559 4.06627 20.2041 4.06627 20.6656 4.52775L23.8168 7.67897C24.2783 8.14046 24.2783 8.88868 23.8168 9.35016L20.6656 12.5014C20.2041 12.9629 19.4559 12.9629 18.9944 12.5014C18.533 12.0399 18.533 11.2917 18.9944 10.8302L20.1284 9.69627ZM7.61906 19.2455L6.48514 20.3794C6.02366 20.8409 5.27544 20.8409 4.81396 20.3794C4.35247 19.9179 4.35247 19.1697 4.81396 18.7082L7.96518 15.557C8.42666 15.0955 9.17488 15.0955 9.63636 15.557L12.7876 18.7082C13.2491 19.1697 13.2491 19.9179 12.7876 20.3794C12.3261 20.8409 11.5779 20.8409 11.1164 20.3794L9.98248 19.2455V27.028H7.61906V19.2455Z" fill="#1565D8"/>
<path fill-rule="evenodd" clip-rule="evenodd" d="M14.3154 11.6659V5.36341C14.3154 4.05814 13.2573 3 11.952 3H5.64955C4.34427 3 3.28613 4.05814 3.28613 5.36341V11.6659C3.28613 12.9711 4.34427 14.0293 5.64955 14.0293H11.952C13.2573 14.0293 14.3154 12.9711 14.3154 11.6659ZM11.952 25.0585H5.64955C4.34427 25.0585 3.28613 26.1167 3.28613 27.422V33.7244C3.28613 35.0297 4.34427 36.0878 5.64955 36.0878H11.952C13.2573 36.0878 14.3154 35.0297 14.3154 33.7244V27.422C14.3154 26.1167 13.2573 25.0585 11.952 25.0585ZM34.0105 14.0293H27.7081C26.4028 14.0293 25.3447 12.9711 25.3447 11.6659V5.36341C25.3447 4.05814 26.4028 3 27.7081 3H34.0105C35.3158 3 36.3739 4.05814 36.3739 5.36341V11.6659C36.3739 12.9711 35.3158 14.0293 34.0105 14.0293ZM25.3447 27.422V33.7244C25.3447 35.0297 26.4028 36.0878 27.7081 36.0878H34.0105C35.3158 36.0878 36.3739 35.0297 36.3739 33.7244V27.422C36.3739 26.1167 35.3158 25.0585 34.0105 25.0585H27.7081C26.4028 25.0585 25.3447 26.1167 25.3447 27.422Z" fill="#1565D8"/>
</svg>
